<svg viewBox="0 0 1360 268" xmlns="http://www.w3.org/2000/svg" fill-rule="evenodd" clip-rule="evenodd" stroke-linejoin="round" stroke-miterlimit="1.414"><path d="M190.221 155.22c22.744 0 47.286-14.35 47.286-37 0-13.747-10.069-25.531-22.555-31.534.117-.159.231-.32.343-.482.907-1.311 4.212-7.326 4.212-12.984 0-11.209-11.282-28-37-28h-37v110h44.714zm599.039 69.021c-3.354 0-6.5 1.71-8.342 4.5H738.26v-18.505h35.369L668.51 0 563.392 210.236h41.118v18.505l-48.407-.058a10.034 10.034 0 0 0-8.343-4.5c-5.514 0-10 4.486-10 10s4.486 10 10 10c3.355 0 6.5-1.711 8.343-4.5l59.407.058v-29.505h16v40.505h-58.157a10.034 10.034 0 0 0-8.343-4.5c-5.514 0-10 4.486-10 10s4.486 10 10 10c3.355 0 6.5-1.711 8.343-4.5h69.157v-51.505h61v51.505h65.133a10.037 10.037 0 0 0 8.343 4.5c5.514 0 10-4.486 10-10s-4.486-10-10-10c-3.354 0-6.5 1.71-8.343 4.5H714.51v-40.505h12.75v29.505h53.658a10.034 10.034 0 0 0 8.342 4.5c5.514 0 10-4.486 10-10s-4.486-10-10-10M79.509 43.984L23.89 155.22h111.237L79.509 43.984zm1008.49 111.237c31.15 0 55-24.895 55-55 0-27.029-21.72-55-55-55s-55 27.626-55 55c0 31.249 24.66 55 55 55zM255.505 73.22c0 5.682 1.409 11.136 4.188 16.211a36.267 36.267 0 0 0 2.756 4.278c2.42 3.238 5.365 6.093 8.766 8.501l-6.161 5.145h-.001l-18.539 15.479s.009.263.009.478c0 23.825 23.087 40.673 49.976 40.673 33.723 0 51.006-22.397 51.006-41.265 0-11.492-5.882-22.575-16.138-30.405a48.268 48.268 0 0 0-2.112-1.531c-5.05-3.447-10.751-6.006-16.971-7.621l3.497-2.92 6.358-5.308 4.811-4.017 9.854-8.228-.233-.656c-5.485-15.44-21.386-25.814-39.566-25.814-18.18 0-41.5 12.667-41.5 37m1010.49.118c0 5.682 1.409 11.136 4.188 16.21a36.267 36.267 0 0 0 2.756 4.279c2.42 3.238 5.365 6.093 8.766 8.5l-6.161 5.146h-.001l-18.539 15.479s.009.263.009.478c0 23.825 23.087 40.673 49.976 40.673 33.723 0 51.006-22.397 51.006-41.265 0-11.492-5.882-22.575-16.138-30.405a48.268 48.268 0 0 0-2.112-1.531c-5.05-3.447-10.751-6.006-16.971-7.621l3.497-2.92 6.358-5.308 4.811-4.017 9.854-8.228-.233-.656c-5.485-15.44-21.386-25.814-39.566-25.814-18.18 0-41.5 12.667-41.5 37M458.502 45.221h-101v74h27v36h47v-36h27v-74zm508.497 0h-101v74h27v36h47v-36h27v-74zm-455 119h56v-46c0-16.061-11.548-26.222-22.556-31.534.117-.159.232-.32.344-.482 2.755-3.983 4.212-8.473 4.212-12.984 0-13.239-12.893-28-37-28h-37v101h36v18zm232-64c0 30.396 23.91 54.906 55 55 38.712.115 51.968-33.443 53.363-41.66l.241-.97-26.213-6.553a28.15 28.15 0 0 0 .609-5.817c0-1.333-1.13-7.946-1.446-8.89l7.407-2.776h-.002l13.334-5 .81-.304 3.731-1.426-.087-.27-.243-.648c-8.009-21.345-28.706-35.686-51.504-35.686-28.471 0-55 22.807-55 55zm239-55h38v110h-38zm214 109.999v-39.585l50 50V54.22h-42v39.586l-50-50V155.22h42zm-676.001 42.003a8.029 8.029 0 0 0-6.921 4.001l-.289.499h-58.811l-18-18H20.21l-.289-.499A8.026 8.026 0 0 0 13 179.223c-4.411 0-8 3.589-8 8s3.589 8 8 8a8.026 8.026 0 0 0 6.921-4.001l.289-.499h413.868l18 18h61.71l.289.499a8.029 8.029 0 0 0 6.921 4.001c4.411 0 8-3.589 8-8s-3.589-8-8-8" fill="#ffe500" fill-rule="nonzero"/><path d="M503.999 222.226a8.029 8.029 0 0 0-6.921 4.001l-.288.499h-49.812l-18-18H39.711l-.289-.499a8.026 8.026 0 0 0-6.921-4.001c-4.411 0-8 3.589-8 8s3.589 8 8 8a8.026 8.026 0 0 0 6.921-4.001l.289-.499h386.368l18 18h52.711l.288.499a8.029 8.029 0 0 0 6.921 4.001c4.411 0 8-3.589 8-8s-3.589-8-8-8m-226.703 9.034a8.002 8.002 0 0 0-7.727 3.962l-.289.498H161.754l-.29-.498a8.003 8.003 0 0 0-7.727-3.962c-3.727.364-6.731 3.326-7.142 7.043-.257 2.314.449 4.535 1.986 6.251a8.01 8.01 0 0 0 5.963 2.666 8.029 8.029 0 0 0 6.92-4.001l.29-.499H269.28l.289.499a8.028 8.028 0 0 0 6.921 4.001 8.013 8.013 0 0 0 5.962-2.665c1.537-1.717 2.243-3.937 1.987-6.252-.412-3.717-3.415-6.679-7.143-7.043" fill="#ffe500" fill-rule="nonzero"/><g fill-rule="nonzero"><path d="M653.07 80.319c0 1.09-.886 1.976-1.976 1.976a1.978 1.978 0 0 1 0-3.953c1.09 0 1.976.887 1.976 1.977m136.19 161.922a8.025 8.025 0 0 1-6.92-4.002l-.29-.498h-52.79v-29.505h-5.583v-17.748l-13.333-13.333v-43.971a4.34 4.34 0 0 0 3.666-4.282 4.338 4.338 0 0 0-4.333-4.333 4.338 4.338 0 0 0-4.333 4.333 4.303 4.303 0 0 0 3 4.108v44.973l13.333 13.333v16.92h-4.668V192.32l-12.976-12.977a4.337 4.337 0 0 0-3.69-6.608 4.338 4.338 0 0 0-4.334 4.333 4.339 4.339 0 0 0 6.609 3.69l12.391 12.391v15.087h-2.499v44.505h57.266l.289-.499a8.028 8.028 0 0 1 6.921-4.001c4.411 0 8 3.589 8 8s-3.589 8-8 8a8.027 8.027 0 0 1-6.921-4.002l-.289-.498H705.51v-51.505h-2.584v-11.332l-7.31-7.311a4.337 4.337 0 0 0-3.69-6.608 4.338 4.338 0 0 0-4.333 4.333 4.338 4.338 0 0 0 6.609 3.69l6.724 6.724v10.504H646.01v-11.748l-16.333-16.333v-44.478a4.304 4.304 0 0 0 3-4.108 4.338 4.338 0 0 0-4.333-4.333 4.338 4.338 0 0 0-4.334 4.333 4.34 4.34 0 0 0 3.667 4.282v45.132l16.333 16.333v10.92h-3.5v51.505h-68.29l-.289.498a8.025 8.025 0 0 1-6.921 4.002c-4.411 0-8-3.589-8-8s3.589-8 8-8a8.026 8.026 0 0 1 6.921 4.001l.289.499h61.29v-44.505h-20v29.505l-58.54-.058-.289.498a8.025 8.025 0 0 1-6.921 4.002c-4.411 0-8-3.589-8-8s3.589-8 8-8a8.026 8.026 0 0 1 6.921 4.001l.289.499 51.54.058v-22.505h-3.833v-15.253l12.833-12.833v-23.752a4.322 4.322 0 0 0 3.167-4.162 4.338 4.338 0 0 0-4.333-4.334 4.339 4.339 0 0 0-4.334 4.334 4.34 4.34 0 0 0 3.5 4.252v22.833l-12.833 12.834v16.081h-7v-17.92l13-13v-11.197a4.34 4.34 0 0 0 3.333-4.217 4.338 4.338 0 0 0-4.333-4.333 4.338 4.338 0 0 0-4.333 4.333 4.34 4.34 0 0 0 3.333 4.217v10.369l-13 13v18.748h-9.667v-4.422a5.676 5.676 0 0 0 4.667-5.578 5.673 5.673 0 0 0-5.667-5.667 5.673 5.673 0 0 0-5.666 5.667 5.676 5.676 0 0 0 4.666 5.578v4.422h-13.381L668.51 4.471l2 4v9.547a4.342 4.342 0 0 0-3.333 4.218 4.338 4.338 0 0 0 4.333 4.333 4.338 4.338 0 0 0 4.334-4.333 4.342 4.342 0 0 0-3.334-4.218v-5.547l6.617 13.234-21.269 21.269a4.305 4.305 0 0 0-2.848-1.072 4.338 4.338 0 0 0-4.333 4.334 4.338 4.338 0 0 0 4.333 4.333 4.338 4.338 0 0 0 4.334-4.333 4.29 4.29 0 0 0-.313-1.607L680.07 27.59l2.946 5.893-19.672 19.672v13.666l-7.49 7.491a7.59 7.59 0 0 0-4.76-1.66c-4.228 0-7.667 3.439-7.667 7.667s3.439 7.667 7.667 7.667c4.227 0 7.666-3.439 7.666-7.667a7.616 7.616 0 0 0-1.515-4.571l8.099-8.098V53.983l18.615-18.615 3.612 7.226-12.231 12.231a4.275 4.275 0 0 0-2.663-.923 4.338 4.338 0 0 0-4.333 4.334 4.338 4.338 0 0 0 4.333 4.333 4.338 4.338 0 0 0 4.333-4.333c0-.64-.142-1.263-.416-1.836l11.92-11.921 3.335 6.671-23.415 23.414a4.328 4.328 0 0 0-2.757-.995 4.338 4.338 0 0 0-4.333 4.333 4.338 4.338 0 0 0 4.333 4.334 4.338 4.338 0 0 0 4.333-4.334c0-.599-.123-1.184-.36-1.726l23.142-23.141 12.016 24.032h-18.849a4.34 4.34 0 0 0-4.282-3.665 4.338 4.338 0 0 0-4.333 4.334 4.338 4.338 0 0 0 4.333 4.333 4.304 4.304 0 0 0 4.109-3.002h20.022l8.719 17.438-8.269-8.269h-15.276a4.34 4.34 0 0 0-4.305-3.834 4.338 4.338 0 0 0-4.333 4.334 4.338 4.338 0 0 0 4.333 4.333 4.295 4.295 0 0 0 4.056-2.833h14.697l11.925 11.925 53.037 106.075h-12.049v-3.04c2.812-.33 5-2.728 5-5.627a5.673 5.673 0 0 0-5.666-5.667 5.673 5.673 0 0 0-5.667 5.667c0 2.628 1.84 4.88 4.333 5.485v3.182h-6.333v-22.748l-11.5-11.5v-4.167a4.339 4.339 0 0 0 3.5-4.252 4.337 4.337 0 0 0-4.333-4.333 4.338 4.338 0 0 0-4.333 4.333 4.322 4.322 0 0 0 3.166 4.162v5.085l11.5 11.5v21.92h-5v-19.415l-15.833-15.833v-24.59a4.322 4.322 0 0 0 3.167-4.162 4.339 4.339 0 0 0-4.334-4.334 4.338 4.338 0 0 0-4.333 4.334 4.34 4.34 0 0 0 3.5 4.252v25.328l15.833 15.834v18.586h-4.75v22.505h45.79l.29-.499a8.026 8.026 0 0 1 6.92-4.001c4.412 0 8 3.589 8 8s-3.588 8-8 8m0-18c-3.354 0-6.5 1.71-8.342 4.5H738.26v-18.505h35.369L668.51 0 563.392 210.236h41.118v18.505l-48.407-.058a10.034 10.034 0 0 0-8.343-4.5c-5.514 0-10 4.486-10 10s4.486 10 10 10c3.355 0 6.5-1.711 8.343-4.5l59.407.058v-29.505h16v40.505h-58.157a10.034 10.034 0 0 0-8.343-4.5c-5.514 0-10 4.486-10 10s4.486 10 10 10c3.355 0 6.5-1.711 8.343-4.5h69.157v-51.505h61v51.505h65.133a10.037 10.037 0 0 0 8.343 4.5c5.514 0 10-4.486 10-10s-4.486-10-10-10c-3.354 0-6.5 1.71-8.343 4.5H714.51v-40.505h12.75v29.505h53.658a10.034 10.034 0 0 0 8.342 4.5c5.514 0 10-4.486 10-10s-4.486-10-10-10M92.842 143.887a4.338 4.338 0 0 0-4.333 4.333 4.342 4.342 0 0 0 3.333 4.218v.782H43.425v-6.002l5.831-5.831h37.167l-22.892-22.891a4.338 4.338 0 0 0-3.689-6.609 4.338 4.338 0 0 0-4.333 4.333 4.338 4.338 0 0 0 6.608 3.69l19.477 19.477H48.428l-7.003 7.003v6.83H27.127L79.509 48.457l3.166 6.333v8.653a6.177 6.177 0 0 0-5.333 6.111c0 3.4 2.766 6.166 6.167 6.166a6.173 6.173 0 0 0 6.104-7.055l17.777 35.555h-3.134L81.752 81.717a4.275 4.275 0 0 0 .923-2.663 4.338 4.338 0 0 0-4.333-4.334 4.338 4.338 0 0 0-4.333 4.334 4.338 4.338 0 0 0 4.333 4.333c.64 0 1.262-.142 1.836-.416l23.25 23.249h4.962l4.584 9.167h-9.551L77.89 89.855c.506-.721.785-1.58.785-2.468a4.338 4.338 0 0 0-4.333-4.333 4.338 4.338 0 0 0-4.333 4.333 4.337 4.337 0 0 0 4.333 4.333c.718 0 1.424-.184 2.055-.53l26.197 26.197h11.38l4 8h-17.885L73.057 98.355c.506-.721.785-1.58.785-2.468a4.338 4.338 0 0 0-4.333-4.333 4.338 4.338 0 0 0-4.334 4.333 4.338 4.338 0 0 0 4.334 4.333 4.28 4.28 0 0 0 2.055-.53l27.697 27.697h19.713l5.5 11H98.756l-30.112-30.111a4.283 4.283 0 0 0 .531-2.056 4.338 4.338 0 0 0-4.333-4.333 4.338 4.338 0 0 0-4.333 4.333 4.338 4.338 0 0 0 4.333 4.334c.887 0 1.747-.279 2.467-.785l30.619 30.618h27.546l6.416 12.833H93.842v-.783a4.34 4.34 0 0 0 3.333-4.217 4.338 4.338 0 0 0-4.333-4.333m-7.197-74.333a2.139 2.139 0 0 1-2.136 2.137 2.14 2.14 0 0 1-2.137-2.137 2.14 2.14 0 0 1 2.137-2.137c1.178 0 2.136.959 2.136 2.137m-.97-10.764l3.205 6.41a6.13 6.13 0 0 0-3.205-1.689V58.79zm-5.166-14.806L23.89 155.22h111.237L79.509 43.984zm956.27 47.237h12.44c.57 1.761 2.2 3 4.11 3 2.39 0 4.34-1.944 4.34-4.333 0-2.39-1.95-4.334-4.34-4.334a4.34 4.34 0 0 0-4.28 3.667h-11.89a52.465 52.465 0 0 1 2.89-9.333h8.07a4.335 4.335 0 0 0 4.21 3.333c2.39 0 4.34-1.944 4.34-4.333 0-2.39-1.95-4.334-4.34-4.334a4.336 4.336 0 0 0-4.21 3.334h-7.19a52.299 52.299 0 0 1 3.71-6.667h17.44l23.9-23.903c1.13-.066 2.1-.097 3.02-.097 3.32 0 6.66.32 9.97.952l-18.03 18.025a4.288 4.288 0 0 0-2.27-.644 4.344 4.344 0 0 0-4.34 4.334 4.344 4.344 0 0 0 4.34 4.333c2.39 0 4.33-1.944 4.33-4.333 0-.817-.22-1.599-.64-2.276l18.94-18.94a52.99 52.99 0 0 1 7.94 2.566l-17.44 17.435a4.288 4.288 0 0 0-2.47-.785 4.334 4.334 0 0 0-4.33 4.333c0 2.39 1.94 4.333 4.33 4.333s4.34-1.943 4.34-4.333a4.24 4.24 0 0 0-.54-2.055l18.07-18.067c1.9.877 3.76 1.872 5.54 2.969l-30.15 30.153h12.63c.57 1.761 2.2 3 4.11 3 2.39 0 4.34-1.944 4.34-4.333 0-2.39-1.95-4.334-4.34-4.334a4.34 4.34 0 0 0-4.28 3.667h-7.64l27.05-27.046c1.3.87 2.56 1.793 3.75 2.753l-9.27 9.272a4.311 4.311 0 0 0-1.61-.312 4.334 4.334 0 0 0-4.33 4.333c0 2.39 1.94 4.333 4.33 4.333s4.34-1.943 4.34-4.333c0-1.064-.39-2.069-1.07-2.848l9.15-9.157c11.61 10.091 18.25 24.619 18.25 40.005 0 29.001-23.41 52.637-52.33 52.996v-10.782c4.94-.423 8.83-4.581 8.83-9.631 0-5.33-4.34-9.666-9.67-9.666s-9.66 4.336-9.66 9.666c0 4.895 3.73 9.006 8.5 9.589v10.805a52.58 52.58 0 0 1-19-4.025v-16.7l-2.31-2.31c.42-.677.64-1.459.64-2.275 0-2.39-1.94-4.334-4.33-4.334a4.344 4.344 0 0 0-4.34 4.334 4.344 4.344 0 0 0 4.34 4.333c.81 0 1.6-.224 2.27-.644l1.73 1.725v14.99a52.514 52.514 0 0 1-4.5-2.361v-8.958l-10.76-10.752h-8.59a58.976 58.976 0 0 1-1.89-3.667h42.82l12-12h15.33l12.33-12.333h5.48c.56 1.761 2.2 3 4.11 3 2.39 0 4.33-1.944 4.33-4.333 0-2.39-1.94-4.334-4.33-4.334a4.34 4.34 0 0 0-4.28 3.667h-6.13l-12.34 12.333h-15.33l-12 12h-42.87a49.252 49.252 0 0 1-1.26-3.333h39.62l14.5-14.5h8.5a4.335 4.335 0 0 0 8.59-.833c0-2.39-1.94-4.334-4.33-4.334a4.328 4.328 0 0 0-4.17 3.167h-9.41l-14.5 14.5h-39.44a54.73 54.73 0 0 1-1.2-5h39.46l14.84-14.833h18.5l6.91-6.917h10.54c.54 1.788 2.21 3.083 4.13 3.083 2.39 0 4.34-1.943 4.34-4.333s-1.95-4.333-4.34-4.333a4.33 4.33 0 0 0-4.26 3.583h-11.23l-6.92 6.917h-18.5l-14.83 14.833h-38.98a56.77 56.77 0 0 1-.56-6h20.46c.61 2.681 3.01 4.667 5.82 4.667 3.31 0 6-2.692 6-6 0-3.309-2.69-6-6-6a6.005 6.005 0 0 0-5.96 5.333h-20.37c0-2.977.26-6 .78-9m46.11-43.64l-21.64 21.64h-15.24c7.37-10.227 17.88-17.334 29.84-20.357a53.38 53.38 0 0 1 7.04-1.283m5.94 88.092a2.874 2.874 0 0 1-2.87-2.869 2.874 2.874 0 0 1 2.87-2.869c1.58 0 2.87 1.287 2.87 2.869a2.874 2.874 0 0 1-2.87 2.869m-28.66 9.021a53.368 53.368 0 0 1-16.16-16.473h6.58l9.58 9.581v6.892zm28.83 10.527c31.15 0 55-24.895 55-55 0-27.029-21.72-55-55-55s-55 27.626-55 55c0 31.249 24.66 55 55 55zm-940.492-14.834h8.586l7.75 7.75h25.865c.541 1.788 2.207 3.083 4.132 3.083a4.338 4.338 0 0 0 4.334-4.333 4.338 4.338 0 0 0-4.334-4.333 4.34 4.34 0 0 0-4.268 3.583h-24.901l-7.75-7.75h-9.414v-11h28.919l11.083 11.083h-10.477a4.298 4.298 0 0 0-4.192-3.25 4.338 4.338 0 0 0-4.333 4.334 4.338 4.338 0 0 0 4.333 4.333 4.341 4.341 0 0 0 4.236-3.417h15.262l-15.083-15.083h-29.748v-8h35.586l30.705 30.706c-7.1 3.358-15.22 5.127-23.577 5.127-.885 0-1.756.006-2.621.011-1.699.01-3.353.02-5.093-.011h-35v-12.833zm0-34.167h38.919l36.329 36.329a44.823 44.823 0 0 1-7.071 4.601l-31.763-31.763h-36.414v-9.167zm0-8.666h51.081l11.833-11.834h2.757c-.182.243-.37.483-.56.722l-.804 1.007 1.174.529c6.751 3.044 12.349 7.369 16.3 12.576h-9.862l-7.252 7.252v10.495l17.328 17.329a37.041 37.041 0 0 1-5.209 5.629l-37.038-37.039h-39.748v-6.666zm0-7.667h45.748l12.166-12.167h11.552c-.489 2.059-1.317 4.071-2.471 6h-4.909l-11.834 11.834h-50.252v-5.667zm0-13.919l5.919 5.919h35.162l12.833-12.833h15.63c.303 1.384.456 2.782.456 4.166 0 .82-.056 1.657-.167 2.5h-12.747l-12.167 12.167h-44.919V75.968zm0-28.748h1v14.415l8.752 8.752h29.329l11.75-11.75h13.123c2.368 2.585 4.061 5.41 5.046 8.417h-15.914l-12.834 12.833h-33.504l-6.748-6.747V47.22zm3 0h19.667v6.718a4.341 4.341 0 0 0-3.667 4.282 4.338 4.338 0 0 0 4.333 4.334 4.339 4.339 0 0 0 4.334-4.334 4.306 4.306 0 0 0-3-4.108V47.22h10.333c10.429 0 20.298 3.485 26.928 9.417h-11.926l-11.75 11.75h-27.671l-7.581-7.581V47.22zm82.696 60h-5.11l-4.753 4.753v4.995l10.548 10.548a30.44 30.44 0 0 1-3.223 6.449l-16.491-16.492v-8.838l6.081-6.081h10.441a31.036 31.036 0 0 1 2.507 4.666m2.304 11c0 2.407-.318 4.802-.946 7.141l-9.221-9.221v-3.339l3.581-3.581h5.056a27.557 27.557 0 0 1 1.53 9m-45.286 37c22.744 0 47.286-14.35 47.286-37 0-13.747-10.069-25.531-22.555-31.534.117-.159.231-.32.343-.482.907-1.311 4.212-7.326 4.212-12.984 0-11.209-11.282-28-37-28h-37v110h44.714zm77.617-105.586l77.378 77.378c-.526 3.964-1.776 7.808-3.724 11.449l-27.239-27.241h-45.334l-2.446-2.445 4.856-4.055h24.347a4.322 4.322 0 0 0 4.162 3.167 4.338 4.338 0 0 0 4.333-4.333 4.338 4.338 0 0 0-4.333-4.334 4.34 4.34 0 0 0-4.252 3.5h-21.862l.819-.684-1.121-.74c-3.679-2.43-6.831-5.386-9.371-8.785a34.355 34.355 0 0 1-2.604-4.04c-2.616-4.778-3.942-9.909-3.942-15.251 0-8.777 3.662-17.117 10.333-23.586m10.215-7.118l18.711 18.711 17.597 17.596-6.44 5.377 1.979.444c6.732 1.51 12.865 4.132 18.228 7.792.646.441 1.308.922 2.025 1.469 9.9 7.558 15.352 17.792 15.352 28.815 0 .561-.016 1.131-.047 1.706l-37.967-37.967-38.18-38.18a39.607 39.607 0 0 1 8.742-5.763m8.59-3.077l34.076 34.076-4.817 4.021-35.904-35.903a42.452 42.452 0 0 1 6.645-2.194m10.362-1.219c17.078 0 32.027 9.548 37.442 23.832l-8.917 7.446-23.444-23.444h5.671l10.935 10.935a4.283 4.283 0 0 0-.854 2.565 4.338 4.338 0 0 0 4.333 4.333 4.338 4.338 0 0 0 4.334-4.333 4.339 4.339 0 0 0-4.334-4.334c-.683 0-1.343.162-1.946.473l-11.639-11.639h-11.329l26.731 26.731-1.728 1.443-33.282-33.282a44.597 44.597 0 0 1 8.027-.726m37.638 109.391l-17.727-17.728c.387-.719.589-1.51.589-2.329 0-2.757-2.243-5-5-5s-5 2.243-5 5 2.243 5 5 5a4.934 4.934 0 0 0 3.133-1.12l17.558 17.559a46.145 46.145 0 0 1-5.526 4.311l-22.993-22.992a4.96 4.96 0 0 0 .828-2.758c0-2.757-2.243-5-5-5s-5 2.243-5 5 2.243 5 5 5a4.96 4.96 0 0 0 2.758-.828l22.678 22.678a51.446 51.446 0 0 1-6.739 3.433l-27.15-27.151a4.93 4.93 0 0 0 1.119-3.132c0-2.757-2.243-5-5-5-2.756 0-5 2.243-5 5s2.244 5 5 5c.82 0 1.611-.202 2.331-.59l26.675 26.676a55.636 55.636 0 0 1-6.792 2.046l-30-30a4.93 4.93 0 0 0 1.12-3.132c0-2.757-2.243-5-5-5s-5 2.243-5 5 2.243 5 5 5c.819 0 1.611-.202 2.33-.59l29.215 29.216a59.067 59.067 0 0 1-6.949.889l-33.848-33.849h-18.264a32.624 32.624 0 0 1-.455-4.467l16.398-13.691 3.159 3.158h45.333l27.039 27.04c-1.589 2.604-3.542 5.07-5.82 7.351m-37.638 14.609c-2.26 0-4.549-.131-6.81-.39l-26.609-26.61h-12.572a33.708 33.708 0 0 1-1.616-5h17.026l31.98 31.98c-.484.014-.946.02-1.399.02m-20.966-3.88l-15.12-15.12h-5.356a36.986 36.986 0 0 1-3.656-6h10.85l24.136 24.136a55.863 55.863 0 0 1-10.854-3.016m-18.879-13.12h2.931l10.76 10.76c-5.377-2.809-10.027-6.46-13.691-10.76m-1.655-72c0 5.682 1.409 11.136 4.188 16.211a36.267 36.267 0 0 0 2.756 4.278c2.42 3.238 5.365 6.093 8.766 8.501l-6.161 5.145h-.001l-18.539 15.479s.009.263.009.478c0 23.825 23.087 40.673 49.976 40.673 33.723 0 51.006-22.397 51.006-41.265 0-11.492-5.882-22.575-16.138-30.405a48.268 48.268 0 0 0-2.112-1.531c-5.05-3.447-10.751-6.006-16.971-7.621l3.497-2.92 6.358-5.308 4.811-4.017 9.854-8.228-.233-.656c-5.485-15.44-21.386-25.814-39.566-25.814-18.18 0-41.5 12.667-41.5 37m1055.574 42.334c0-.967.79-1.753 1.75-1.753.97 0 1.76.786 1.76 1.753 0 .967-.79 1.753-1.76 1.753-.96 0-1.75-.786-1.75-1.753m-43.05-43.56l39.15 39.156a7.103 7.103 0 0 0-1.51 4.404c0 3.952 3.21 7.167 7.16 7.167 3.96 0 7.17-3.215 7.17-7.167a7.172 7.172 0 0 0-7.17-7.167 7.13 7.13 0 0 0-4.21 1.373l-40.38-40.38c2.19-17.799 18.97-31.159 39.26-31.159 1.4 0 2.81.067 4.22.2l-15.47 15.466h-3.29a6.336 6.336 0 0 0-6.29-5.666c-3.5 0-6.34 2.841-6.34 6.333s2.84 6.333 6.34 6.333c3 0 5.55-2.131 6.17-5h4.24l17.16-17.155c2.33.356 4.64.903 6.87 1.63l-9.83 9.836a4.335 4.335 0 0 0-6.61 3.689c0 2.39 1.94 4.334 4.33 4.334s4.33-1.944 4.33-4.334c0-.816-.22-1.598-.64-2.275l10.51-10.51c1.93.744 3.8 1.62 5.56 2.616l-21.76 21.759a4.292 4.292 0 0 0-2.67-.923 4.335 4.335 0 0 0-4.33 4.333c0 2.39 1.94 4.334 4.33 4.334s4.34-1.944 4.34-4.334c0-.64-.15-1.262-.42-1.836l22.27-22.271a38.648 38.648 0 0 1 4.67 3.497l-16.06 16.062a4.264 4.264 0 0 0-2.46-.785 4.344 4.344 0 0 0-4.34 4.333c0 2.39 1.95 4.334 4.34 4.334 2.39 0 4.33-1.944 4.33-4.334 0-.717-.18-1.423-.53-2.055l16.2-16.2a35.795 35.795 0 0 1 4.1 4.734l-25.16 25.165a4.335 4.335 0 0 0-6.61 3.69 4.335 4.335 0 0 0 4.33 4.333c2.39 0 4.34-1.944 4.34-4.333 0-.817-.23-1.599-.65-2.276l24.9-24.895a33.254 33.254 0 0 1 3.02 6.003l-26.52 22.147 1.97.444c4.44.995 8.68 2.504 12.61 4.492l-6.17 6.17v11.752a4.323 4.323 0 0 0-3.16 4.163 4.335 4.335 0 0 0 4.33 4.333c2.39 0 4.33-1.944 4.33-4.333 0-2.105-1.5-3.864-3.5-4.253V96.135l6.02-6.019c1.33.739 2.6 1.518 3.77 2.32.46.31.92.642 1.41 1.005l-5.03 5.032v23.094c-2.23.17-4 2.043-4 4.32 0 2.39 1.94 4.334 4.33 4.334s4.34-1.944 4.34-4.334a4.344 4.344 0 0 0-2.67-4V99.301l4.62-4.622c9.28 7.48 14.38 17.408 14.38 28.042 0 13.76-8.99 26.706-23.48 33.833h-50.04c-11.59-5.703-19.78-15.223-22.48-25.922l9.25 9.254a4.328 4.328 0 0 0-1.58 3.335 4.335 4.335 0 0 0 4.33 4.333c2.39 0 4.33-1.944 4.33-4.333 0-2.39-1.94-4.334-4.33-4.334-.28 0-.55.029-.83.087l-11.85-11.851a32.29 32.29 0 0 1-.29-3.37l3.14-2.619 26.42 26.42h43.08a4.347 4.347 0 0 0 4 2.667c2.39 0 4.33-1.944 4.33-4.334a4.335 4.335 0 0 0-4.33-4.333 4.336 4.336 0 0 0-4.32 4h-41.94l-25.7-25.707 4.09-3.415 25.62 25.622h31.67c.7 1.504 2.21 2.5 3.91 2.5 2.39 0 4.33-1.944 4.33-4.333a4.335 4.335 0 0 0-5.59-4.147c.38-.643.59-1.39.59-2.187a4.335 4.335 0 0 0-4.33-4.333 4.336 4.336 0 0 0-4.32 4h-19.93l-23.87-23.869 3.91-3.263 18 17.998c-.51.72-.79 1.58-.79 2.467 0 2.39 1.94 4.334 4.33 4.334s4.34-1.944 4.34-4.334a4.344 4.344 0 0 0-4.34-4.333c-.71 0-1.42.185-2.05.531l-17.95-17.95 3.71-3.099-1.12-.74c-3.68-2.431-6.83-5.387-9.37-8.784a34.004 34.004 0 0 1-2.61-4.041 32.67 32.67 0 0 1-2.08-4.642l25.78 25.783a4.387 4.387 0 0 0-.64 2.275c0 2.39 1.94 4.334 4.33 4.334s4.34-1.944 4.34-4.334a4.344 4.344 0 0 0-4.34-4.333c-.81 0-1.6.224-2.27.643l-28.33-28.328a31.522 31.522 0 0 1-.73-6.648c0-.404.01-.813.03-1.227m39.47 90.227c-7.08 0-14.04-1.259-20.41-3.667h40.81c-6.36 2.408-13.33 3.667-20.4 3.667m-33.16-51.249l24.58 24.582h21.08a4.347 4.347 0 0 0 4 2.667c.44 0 .86-.066 1.26-.188a4.343 4.343 0 0 0-.59 2.021h-30.42l-24.91-24.909 5-4.173zm-4.15-21.541c.8 1.463 1.73 2.902 2.75 4.278 2.42 3.238 5.37 6.093 8.77 8.501l-24.7 20.624.01.478c.44 25.897 25.08 40.909 50.48 40.909 32.82 0 50.5-21.31 50.5-41.5 0-23.28-22.09-36.789-35.22-39.557l24.52-20.474-.23-.656c-3.12-8.785-15.56-25.813-39.57-25.813-28.59 0-41.5 21.246-41.5 37 0 6.463 2.08 12.362 4.19 16.21zm-859.101-42.21l8 8h37.414v17.917h-4.836l-11.083-11.084h-30.167l-14.833-14.833h15.505zm45.414 0v6h-36.586l-6-6h42.586zm0 48.086l-6.586-6.586h-71.5l-18.914-18.914V47.221h10.253l33.666 33.667h21.973c.562 1.76 2.195 3 4.108 3a4.339 4.339 0 0 0 4.334-4.334 4.338 4.338 0 0 0-4.334-4.333 4.34 4.34 0 0 0-4.282 3.667h-20.97l-31.667-31.667h8.838l25.667 25.667h28.667l4.67 4.67a4.275 4.275 0 0 0-.923 2.663 4.338 4.338 0 0 0 4.334 4.333 4.338 4.338 0 0 0 4.333-4.333 4.338 4.338 0 0 0-4.333-4.333c-.641 0-1.263.142-1.837.416l-5.416-5.416h-28.667L384.25 47.221h8.505l16.833 16.833h30.167l11.083 11.084h5.664v20.169zm-43.666 42.253a2.747 2.747 0 0 1 2.744 2.744 2.747 2.747 0 0 1-2.744 2.744 2.747 2.747 0 0 1-2.745-2.744 2.747 2.747 0 0 1 2.745-2.744m43.666-23.671h-33.666v15.448a4.341 4.341 0 0 0-3.334 4.217 4.339 4.339 0 0 0 4.334 4.334 4.338 4.338 0 0 0 4.333-4.334 4.34 4.34 0 0 0-3.333-4.216v-13.449h31.666v1.332h-27v36h-32v-15.45a4.34 4.34 0 0 0 3.334-4.217 4.338 4.338 0 0 0-4.334-4.333 4.338 4.338 0 0 0-4.333 4.333 4.34 4.34 0 0 0 3.333 4.217v15.45h-9v-36h-27v-16.586l14.919 14.919h37.415v17.653c-3.48.488-6.167 3.485-6.167 7.097a7.175 7.175 0 0 0 7.167 7.167c3.951 0 7.166-3.215 7.166-7.167 0-3.612-2.686-6.609-6.166-7.097v-19.653H375.25l-15.748-15.747v-5.838l16.919 16.919h62.495l.308-.308a7.347 7.347 0 0 0 4.612 1.641c4.043 0 7.333-3.29 7.333-7.333 0-4.044-3.29-7.334-7.333-7.334-4.044 0-7.334 3.29-7.334 7.334 0 1.432.418 2.815 1.193 4H377.25L359.502 89.14v-7.505l19.253 19.253h43.835a5.676 5.676 0 0 0 5.579 4.666 5.672 5.672 0 0 0 5.667-5.666 5.673 5.673 0 0 0-5.667-5.667 5.676 5.676 0 0 0-5.579 4.667h-43.007l-20.081-20.081v-6.172l18.086 18.086h71.5l7.414 7.414v15.754zm2-68.668h-101v74h27v36h47v-36h27v-74zm409.497 72v-10.333h40.225c.563 1.76 2.196 3 4.108 3a4.339 4.339 0 0 0 4.334-4.334 4.338 4.338 0 0 0-4.334-4.333 4.341 4.341 0 0 0-4.282 3.667h-40.051v-9h70.253l9.5 9.5h17.247v11.833h-27v13.586l-10.753-10.753h-16.942a4.34 4.34 0 0 0-4.305-3.833 4.338 4.338 0 0 0-4.333 4.333 4.338 4.338 0 0 0 4.333 4.334 4.294 4.294 0 0 0 4.056-2.834h16.363l11.581 11.581v4.172l-11.586-11.586h-31.414v-9h-27zm0-26.667h73.586l8.167 8.167h15.247v4.667H948.58l-9.5-9.5h-71.081v-3.334zm0-7h76.253l7.833 7.834h12.914v5.333H950.58l-8.167-8.167h-74.414v-5zm0-7h80.919l5.834 5.834h10.247v7h-12.086l-7.833-7.834h-77.081v-5zm0-7.666h11.414l21.667-21.667h26.838l-5.451 5.452a4.289 4.289 0 0 0-2.468-.785 4.337 4.337 0 0 0-4.333 4.333 4.337 4.337 0 0 0 4.333 4.333 4.337 4.337 0 0 0 4.333-4.333c0-.718-.185-1.424-.53-2.055l6.944-6.945h16.839l-19.667 19.667h-22.702a4.342 4.342 0 0 0-4.217-3.334 4.338 4.338 0 0 0-4.333 4.334 4.338 4.338 0 0 0 4.333 4.333 4.341 4.341 0 0 0 4.217-3.333h23.53l21.667-21.667h6.172l-7.197 7.197a4.293 4.293 0 0 0-2.056-.53 4.337 4.337 0 0 0-4.333 4.333 4.337 4.337 0 0 0 4.333 4.333 4.338 4.338 0 0 0 4.334-4.333c0-.887-.278-1.747-.785-2.467l8.532-8.533h5.586v2.586l-14.747 14.747h-4.304a4.34 4.34 0 0 0-4.282-3.666 4.338 4.338 0 0 0-4.334 4.333 4.338 4.338 0 0 0 4.334 4.333 4.305 4.305 0 0 0 4.108-3h5.306l13.919-13.919v27.753h-9.419l-5.834-5.834h-81.747v-5.666zm0-21.667h19.919l-6.784 6.785a4.296 4.296 0 0 0-2.468-.785 4.338 4.338 0 0 0-4.334 4.333 4.339 4.339 0 0 0 4.334 4.334 4.338 4.338 0 0 0 4.333-4.334c0-.717-.185-1.423-.53-2.054l8.277-8.279h7.506l-19.667 19.667h-10.586V47.221zm70 96.919l-11.919-11.919h-31.081v-4h30.586l12.414 12.414v3.505zm0 9.081h-4.253l-6.666-6.667h-17.53a4.342 4.342 0 0 0-4.218-3.333 4.338 4.338 0 0 0-4.333 4.333 4.338 4.338 0 0 0 4.333 4.334 4.343 4.343 0 0 0 4.218-3.334h16.702l4.666 4.667h-35.919v-19h30.253l12.747 12.748v6.252zm-45-27v29h47v-36h27v-74h-101v74h27v7zm-390-17.917a1.084 1.084 0 1 1 2.168.002 1.084 1.084 0 0 1-2.168-.002m3.667 35.917v-16.415l-4.285-4.285c.506-.72.785-1.58.785-2.467a4.338 4.338 0 0 0-4.334-4.333 4.338 4.338 0 0 0-4.176 5.49 4.338 4.338 0 0 0-5.49 4.176 4.338 4.338 0 0 0 4.333 4.334c.64 0 1.262-.143 1.836-.417l1.997 1.997v11.92h-19.333v-18.086l16.914-16.914h3.577a5.676 5.676 0 0 0 5.592 4.75 5.673 5.673 0 0 0 5.667-5.667 5.673 5.673 0 0 0-5.667-5.667c-2.73 0-5.042 1.981-5.553 4.584h-4.444l-16.086 16.085v-9.671l7.659-7.659a6.273 6.273 0 0 0 3.508 1.078 6.34 6.34 0 0 0 6.333-6.333 6.34 6.34 0 0 0-6.333-6.334 6.34 6.34 0 0 0-6.334 6.334c0 1.411.487 2.784 1.359 3.893l-6.192 6.192V78.887h7.45a4.34 4.34 0 0 0 4.217 3.334 4.338 4.338 0 0 0 4.333-4.334 4.312 4.312 0 0 0-.965-2.723 4.341 4.341 0 0 0 3.632-4.277 4.338 4.338 0 0 0-4.334-4.333 4.322 4.322 0 0 0-4.162 3.167h-7.59l-2.581-2.581v-8.172l3.419 3.419h16.5l.794.794a4.267 4.267 0 0 0-.713 2.373 4.338 4.338 0 0 0 4.333 4.333 4.338 4.338 0 0 0 4.334-4.333 4.338 4.338 0 0 0-4.334-4.333c-.766 0-1.509.204-2.165.587l-1.42-1.421h-16.5l-4.248-4.247v-8.919h35c5.486 0 10.91.965 15.785 2.801l-5.651 5.65a4.293 4.293 0 0 0-2.467-.785 4.339 4.339 0 0 0-4.334 4.334 4.338 4.338 0 0 0 4.334 4.333 4.338 4.338 0 0 0 4.333-4.333c0-.718-.185-1.424-.531-2.056l6.324-6.324c3.302 1.452 6.233 3.278 8.734 5.439l-7.864 7.864a4.275 4.275 0 0 0-2.663-.923 4.337 4.337 0 0 0-4.333 4.333 4.338 4.338 0 0 0 4.333 4.333 4.338 4.338 0 0 0 4.333-4.333c0-.64-.142-1.263-.416-1.836l8.08-8.081c2.189 2.165 3.894 4.543 5.081 7.091l-6.915 6.916a4.275 4.275 0 0 0-2.663-.923 4.337 4.337 0 0 0-4.333 4.333 4.338 4.338 0 0 0 4.333 4.333 4.338 4.338 0 0 0 4.333-4.333c0-.64-.142-1.263-.416-1.836l6.478-6.478a19.692 19.692 0 0 1 1.105 6.481c0 4.161-1.298 8.147-3.857 11.846a25.27 25.27 0 0 1-1.032 1.375l-.804 1.006 1.174.53a46.706 46.706 0 0 1 7.26 4.088l-.299.298a4.338 4.338 0 0 0-6.609 3.69 4.338 4.338 0 0 0 4.334 4.333 4.338 4.338 0 0 0 3.689-6.608l.528-.528a39.703 39.703 0 0 1 5.344 4.828l-6.728 6.727v57.415h-6.333v-54.748l-29.405-29.405a4.303 4.303 0 0 0 1.071-2.847 4.338 4.338 0 0 0-4.333-4.334 4.338 4.338 0 0 0-4.333 4.334 4.338 4.338 0 0 0 4.333 4.333c.552 0 1.096-.107 1.606-.313l29.061 29.06v53.92h-6.667V112.14l-21.285-21.285c.506-.721.785-1.58.785-2.468a4.338 4.338 0 0 0-4.333-4.333 4.338 4.338 0 0 0-4.334 4.333 4.339 4.339 0 0 0 4.334 4.334c.718 0 1.424-.185 2.055-.531l20.778 20.778v49.253h-5.333V117.14l-14.144-14.144a4.339 4.339 0 0 0-3.69-6.609 4.338 4.338 0 0 0-4.333 4.334 4.338 4.338 0 0 0 6.609 3.689l13.558 13.558v44.253h-12.667v-18h-7.333zm-2 0h-5.334v-12.748l-2.423-2.423a4.275 4.275 0 0 0 .923-2.663c0-.4-.054-.789-.156-1.157a4.381 4.381 0 0 0 3.212-.374l3.778 3.779v15.586zm-26.667-74.253l1.752 1.753h8.329c.138.706.448 1.351.884 1.89a4.345 4.345 0 0 0-3.515 3.276h-7.45v-6.919zm81.04 29.627c4.558 5.579 6.96 11.997 6.96 18.626v44h-13v-56.586l6.04-6.04zm-47.04 64.626h56v-46c0-16.061-11.548-26.222-22.556-31.534.117-.159.232-.32.344-.482 2.755-3.983 4.212-8.473 4.212-12.984 0-13.239-12.893-28-37-28h-37v101h36v18zm246.766-98.486l17.82 17.82h64.011l-13.334 5h-24.677l-7.736 7.735a4.331 4.331 0 0 0-3.183-1.402 4.34 4.34 0 0 0-4.334 4.333 4.34 4.34 0 0 0 4.334 4.334 4.338 4.338 0 0 0 4.333-4.334c0-.374-.048-.743-.146-1.106l7.56-7.56h19.732l.201.537c.382 1.014.7 2.062.952 3.129h-14.38l-9.118 9.118a4.302 4.302 0 0 0-2.468-.784 4.338 4.338 0 0 0-4.333 4.333 4.338 4.338 0 0 0 4.333 4.333 4.338 4.338 0 0 0 4.334-4.333c0-.718-.184-1.424-.531-2.055l8.611-8.612h13.944a26.088 26.088 0 0 1-.465 10.307l-.167.671-.812-.811h-17.247v29.581l1.786 1.785a4.289 4.289 0 0 0-.786 2.467 4.338 4.338 0 0 0 4.333 4.334 4.34 4.34 0 0 0 4.252-3.494 4.337 4.337 0 0 0 3.748 2.16 4.338 4.338 0 0 0 4.334-4.333 4.338 4.338 0 0 0-4.334-4.333c-.982 0-1.91.327-2.662.923l-2.671-2.671v-16.752h5.753l10.5 10.5h14.738c-6.985 12.177-18.573 21.155-32.088 24.821l-7.492-7.493a4.267 4.267 0 0 0 .922-2.662 4.338 4.338 0 0 0-4.333-4.333 4.338 4.338 0 0 0-4.333 4.333 4.338 4.338 0 0 0 4.333 4.334 4.25 4.25 0 0 0 1.837-.417l6.799 6.799a53.21 53.21 0 0 1-11.636 1.284A52.932 52.932 0 0 1 750.4 121.37l8.852 8.851h10.864a4.34 4.34 0 0 0 4.216 3.334 4.339 4.339 0 0 0 4.334-4.334 4.338 4.338 0 0 0-4.334-4.333 4.34 4.34 0 0 0-4.216 3.333H760.08l-11.419-11.419a52.716 52.716 0 0 1-2.203-9.707l15.627 15.626h13.752a4.322 4.322 0 0 0 4.162 3.167 4.338 4.338 0 0 0 4.333-4.333 4.338 4.338 0 0 0-4.333-4.334 4.342 4.342 0 0 0-4.253 3.5h-12.833l-5.95-5.95-10.817-10.817a51.44 51.44 0 0 1-.147-3.733 52.904 52.904 0 0 1 12.766-34.486m61.342-.43c0-1.09.887-1.977 1.975-1.977a1.98 1.98 0 0 1 1.977 1.977c0 1.09-.887 1.976-1.977 1.976a1.978 1.978 0 0 1-1.975-1.976m-45.111-12.34l13.422 13.423h26.078c.532 3.71 3.748 6.583 7.586 6.583a7.611 7.611 0 0 0 2.995-.609 4.34 4.34 0 0 0-1.24 2.026h-38.924l-9.224-9.225a4.338 4.338 0 0 0-3.69-6.608 4.338 4.338 0 0 0-4.333 4.333 4.338 4.338 0 0 0 6.61 3.689l9.809 9.811h39.661a4.342 4.342 0 0 0 4.253 3.5 4.338 4.338 0 0 0 4.333-4.333 4.338 4.338 0 0 0-5.63-4.135 7.66 7.66 0 0 0 3.047-6.115c0-4.228-3.439-7.667-7.667-7.667-3.894 0-7.12 2.919-7.6 6.75h-25.236l-12.344-12.345a52.594 52.594 0 0 1 10.874-3.631l7.309 7.309h12.994a4.34 4.34 0 0 0 4.253 3.5 4.338 4.338 0 0 0 4.334-4.333 4.338 4.338 0 0 0-4.334-4.333 4.321 4.321 0 0 0-4.162 3.166h-12.257l-5.763-5.763a53.39 53.39 0 0 1 8.849-.737c21.635 0 41.308 13.403 49.271 33.456l-2.341.878h-68.516l-17.316-17.316a52.903 52.903 0 0 1 14.899-11.274m75.173 61.079a51.961 51.961 0 0 1-1.09 3.511h-14.666l-9.932-9.933 25.688 6.422zm-4.089 10.511h-15l-10.5-10.5h-8.581v19.58l3.416 3.417a4.322 4.322 0 0 0-.333.998 4.335 4.335 0 0 0-3.75-2.162c-.717 0-1.423.185-2.054.531l-1.279-1.278v-26.753h14.419l11.167 11.167h14.757a52.952 52.952 0 0 1-2.262 5m-102.081-24.334c0 30.396 23.91 54.906 55 55 38.712.115 51.968-33.443 53.363-41.66l.241-.97-26.213-6.553a28.15 28.15 0 0 0 .322-9.817h.026l-.223-1.184-.005-.026-.148-.79h-.012a28.104 28.104 0 0 0-.797-2.89l7.407-2.776h-.002l13.334-5 .81-.304 3.731-1.426-.087-.27-.243-.648c-8.009-21.345-28.706-35.686-51.504-35.686-28.471 0-55 22.807-55 55zm241 53v-6.252l3.126 3.126 3.124 3.126h-6.25zm0-38.752l3.169 3.169h30.831v2.916h-19.41l-4.31 4.311a4.338 4.338 0 0 0-6.613 3.689 4.336 4.336 0 0 0 3.633 4.277 4.334 4.334 0 0 0 2.7 7.723c2.39 0 4.33-1.943 4.33-4.333a4.23 4.23 0 0 0-.53-2.055l5.95-5.945h14.25v25h-8.33v-8.45a4.335 4.335 0 0 0-1-8.55 4.344 4.344 0 0 0-4.34 4.333 4.345 4.345 0 0 0 3.34 4.217v8.45h-14.59l-9.08-9.081v-29.671zm0-7l3.003 3.002h30.997v5.167h-30.003l-3.997-3.998v-4.171zm0-7.667l2.503 2.502h31.497v6.167H988.83l-3.831-3.831v-4.838zm0-10.667l3.003 3.003h30.997v8.166H988.33l-3.331-3.331v-7.838zm0-41.914h34V68.14l-4.11 4.107a6.972 6.972 0 0 0-4.56-1.693c-3.86 0-7 3.141-7 7 0 3.86 3.14 7 7 7s7-3.14 7-7c0-1.35-.39-2.669-1.12-3.796l2.79-2.789v19.169H988.83l-3.831-3.831V47.221zm34 79h-15.08l-6.45 6.452a4.338 4.338 0 0 0-1.77-.728 4.344 4.344 0 0 0 1.63-3.391c0-.816-.22-1.598-.64-2.275l3.72-3.725h18.59v3.667zm-36 29h38v-110h-38v110zm212-13.334h-10.92l-9-9h-18.08v-7.667h10.75l7.25-7.252v-8.864a4.335 4.335 0 0 0-1-8.55 4.335 4.335 0 0 0-1 8.55v8.036l-6.08 6.08h-9.92v-5.666h8.41l4.09-4.086v-13.085a4.32 4.32 0 0 0 3.17-4.163 4.344 4.344 0 0 0-4.34-4.333 4.335 4.335 0 0 0-4.33 4.333 4.342 4.342 0 0 0 3.5 4.253v12.167l-2.91 2.914h-7.59V72.301l25.53 25.531a4.236 4.236 0 0 0-.53 2.055c0 2.39 1.94 4.333 4.33 4.333s4.34-1.943 4.34-4.333a4.344 4.344 0 0 0-4.34-4.333c-.89 0-1.74.278-2.46.785l-26.87-26.866V57.635l12.26 12.256c-.6.753-.93 1.681-.93 2.663a4.344 4.344 0 0 0 4.34 4.333c2.39 0 4.33-1.944 4.33-4.333 0-2.39-1.94-4.334-4.33-4.334-.64 0-1.27.143-1.84.417l-13.83-13.831v-6.171l50 50V86.302l3.26 3.256c-.6.753-.93 1.68-.93 2.662 0 2.39 1.95 4.334 4.34 4.334 2.39 0 4.33-1.944 4.33-4.334a4.335 4.335 0 0 0-4.33-4.333c-.64 0-1.27.143-1.84.417l-4.83-4.831V56.22h13.25l-1.78 1.786a4.289 4.289 0 0 0-2.47-.786 4.335 4.335 0 0 0-4.33 4.334 4.335 4.335 0 0 0 4.33 4.333c2.39 0 4.33-1.944 4.33-4.333a4.23 4.23 0 0 0-.53-2.055l3.28-3.279h11.84l-10.96 10.96 1.41 1.414 12.38-12.374h7.25v3.92l-9.33 9.333v7.747h9.33v7h-21.92l-4.53-4.532c.51-.721.78-1.58.78-2.468a4.335 4.335 0 0 0-4.33-4.333 4.335 4.335 0 0 0-4.33 4.333c0 2.39 1.94 4.334 4.33 4.334.72 0 1.42-.185 2.06-.531l5.19 5.197h22.75v18.5h-42.09l-12.03-12.032c.51-.721.79-1.58.79-2.468a4.344 4.344 0 0 0-4.34-4.333 4.335 4.335 0 0 0-4.33 4.333c0 2.39 1.94 4.334 4.33 4.334.72 0 1.43-.185 2.06-.531l12.7 12.697h42.91v9.086l-.98-.977c.42-.677.65-1.459.65-2.275 0-2.39-1.95-4.334-4.34-4.334a4.335 4.335 0 0 0-4.33 4.334 4.335 4.335 0 0 0 6.61 3.689l2.39 2.392v7.505l-13.75-13.753h-15.66l-1.82 1.818a4.287 4.287 0 0 0-3.1-1.318 4.344 4.344 0 0 0-4.34 4.333 4.344 4.344 0 0 0 5.08 4.27 3.342 3.342 0 0 0 3.26 4.064c.54 0 1.05-.129 1.5-.358a4.335 4.335 0 0 0 3.83 6.358c2.05 0 3.76-1.424 4.22-3.334h1.7l19.08 19.081v5.505l-14.86-14.864c.34-.631.53-1.337.53-2.055a4.344 4.344 0 0 0-4.34-4.333 4.335 4.335 0 0 0-4.33 4.333c0 2.39 1.94 4.333 4.33 4.333.89 0 1.75-.278 2.47-.785l16.2 16.2v5.171l-50-50v31.081zm0 4h-38v-5.333h4.78a4.347 4.347 0 0 0 4.22 3.333c2.39 0 4.33-1.944 4.33-4.333 0-2.39-1.94-4.334-4.33-4.334a4.347 4.347 0 0 0-4.22 3.334h-4.78v-3.667h17.25l9 9h11.75v2zm0 7.333h-38v-5.333h38v5.333zm50-78h-7.33v-4.919l7.33-7.333V75.22zm0 59.253l-15.42-15.419h-12.66l-.4.401a3.33 3.33 0 0 0-1.85-.568c.21-.513.33-1.076.33-1.667a4 4 0 0 0-.19-1.232l1.6-1.601h14.01l14.58 14.581v5.505zm0 10l-18.25-18.253h-2.53a4.347 4.347 0 0 0-4.22-3.333c-.83 0-1.61.235-2.27.642.17-.402.27-.844.27-1.309 0-.402-.07-.795-.21-1.166h10.96l16.25 16.247v7.172zm-48 10.747v-39.585l50 50V54.22h-42v39.586l-50-50V155.22h42z" fill="#ff9500"/><path d="M690.51 72.236c2.757 0 5-2.243 5-5s-2.243-5-5-5-5 2.243-5 5 2.243 5 5 5m27.084 104.362c-.844 0-1.53-.686-1.53-1.53s.686-1.53 1.53-1.53 1.53.686 1.53 1.53-.686 1.53-1.53 1.53m1.083-6.573v-28.239a4.341 4.341 0 0 0 3.334-4.217 4.338 4.338 0 0 0-4.334-4.333 4.338 4.338 0 0 0-4.333 4.333 4.339 4.339 0 0 0 3.333 4.216v28.198a5.175 5.175 0 0 0-4.25 5.085 5.173 5.173 0 0 0 5.167 5.167 5.173 5.173 0 0 0 5.167-5.167c0-2.453-1.759-4.539-4.084-5.043m-98.333-34.789a4.338 4.338 0 0 0-4.333 4.333 4.34 4.34 0 0 0 3.666 4.282v41.304l-3.5 3.5v11.662l4.336 4.336h7.498v-4.834c2.833-.478 5-2.949 5-5.916 0-3.309-2.692-6-6-6-3.309 0-6 2.691-6 6 0 2.967 2.166 5.438 5 5.916v2.834h-4.67l-3.164-3.165v-10.004l3.5-3.5v-42.307a4.303 4.303 0 0 0 3-4.108 4.338 4.338 0 0 0-4.333-4.333M158.203 55.554a2.14 2.14 0 0 1 2.137-2.137 2.14 2.14 0 0 1 2.137 2.137 2.14 2.14 0 0 1-2.137 2.137 2.14 2.14 0 0 1-2.137-2.137m8.304 0c0-3.4-2.766-6.167-6.167-6.167a6.175 6.175 0 0 0-6.167 6.167c0 3.4 2.767 6.167 6.167 6.167a6.174 6.174 0 0 0 6.167-6.167m42 49.333c2.757 0 5-2.243 5-5s-2.243-5-5-5-5 2.243-5 5 2.243 5 5 5m551.159-15c1.323 0 2.61-.451 3.656-1.263l8.94 8.94a5.974 5.974 0 0 0-1.263 3.656c0 3.309 2.691 6 6 6s6-2.691 6-6c0-3.308-2.691-6-6-6a5.942 5.942 0 0 0-3.268.985l-9.05-9.05c.64-.973.985-2.105.985-3.268 0-3.309-2.691-6-6-6s-6 2.691-6 6 2.691 6 6 6m232.413-32.333c0-.967.79-1.753 1.75-1.753.97 0 1.76.786 1.76 1.753 0 .967-.79 1.753-1.76 1.753-.96 0-1.75-.786-1.75-1.753m8.92 0c0-3.952-3.22-7.167-7.17-7.167-3.95 0-7.163 3.215-7.163 7.167s3.213 7.167 7.163 7.167 7.17-3.215 7.17-7.167M520.998 213.223a8.029 8.029 0 0 1-6.921-4.001l-.289-.499h-61.71l-18-18H20.21l-.289.499A8.026 8.026 0 0 1 13 195.223c-4.411 0-8-3.589-8-8s3.589-8 8-8a8.026 8.026 0 0 1 6.921 4.001l.289.499h416.767l18 18h58.811l.289-.499a8.029 8.029 0 0 1 6.921-4.001c4.411 0 8 3.589 8 8s-3.589 8-8 8m0-18c-3.354 0-6.499 1.71-8.343 4.5h-56.849l-18-18H21.343a10.034 10.034 0 0 0-8.343-4.5c-5.514 0-10 4.486-10 10s4.486 10 10 10c3.355 0 6.5-1.71 8.343-4.5H433.25l18 18h61.405a10.036 10.036 0 0 0 8.343 4.5c5.514 0 10-4.486 10-10s-4.486-10-10-10" fill="#ff9500"/><path d="M503.999 238.226a8.029 8.029 0 0 1-6.921-4.001l-.288-.499h-52.711l-18-18H39.711l-.289.499a8.026 8.026 0 0 1-6.921 4.001c-4.411 0-8-3.589-8-8s3.589-8 8-8a8.026 8.026 0 0 1 6.921 4.001l.289.499h389.267l18 18h49.812l.288-.499a8.029 8.029 0 0 1 6.921-4.001c4.411 0 8 3.589 8 8s-3.589 8-8 8m0-18c-3.355 0-6.5 1.71-8.343 4.5h-47.849l-18-18H40.844a10.034 10.034 0 0 0-8.343-4.5c-5.514 0-10 4.486-10 10s4.486 10 10 10c3.355 0 6.5-1.71 8.343-4.5h384.407l18 18h52.405a10.034 10.034 0 0 0 8.343 4.5c5.514 0 10-4.486 10-10s-4.486-10-10-10" fill="#ff9500"/><path d="M282.452 244.555a8.014 8.014 0 0 1-5.962 2.666 8.031 8.031 0 0 1-6.921-4.001l-.288-.499H161.754l-.289.498a8.03 8.03 0 0 1-6.921 4.002 8.014 8.014 0 0 1-5.963-2.666c-1.537-1.717-2.242-3.938-1.986-6.251.411-3.718 3.415-6.68 7.143-7.044a8.004 8.004 0 0 1 7.727 3.962l.289.499H269.28l.289-.499a8.003 8.003 0 0 1 7.727-3.962c3.728.364 6.732 3.326 7.143 7.044.256 2.314-.449 4.534-1.987 6.251m-4.961-15.285a10.001 10.001 0 0 0-9.344 4.451h-105.26a10.005 10.005 0 0 0-9.344-4.451c-4.663.454-8.421 4.161-8.936 8.814a10.047 10.047 0 0 0 2.484 7.804 10.015 10.015 0 0 0 7.453 3.333c3.354 0 6.499-1.71 8.343-4.5h105.26a10.037 10.037 0 0 0 8.343 4.5c2.84 0 5.556-1.215 7.452-3.332a10.05 10.05 0 0 0 2.485-7.805c-.515-4.653-4.273-8.36-8.936-8.814" fill="#ff9500"/><path d="M88.022 231.26a8.002 8.002 0 0 1 7.727 3.962l.289.498h17.526l.29-.498a8.003 8.003 0 0 1 7.727-3.962c3.727.364 6.731 3.326 7.142 7.043.257 2.314-.449 4.535-1.986 6.251a8.01 8.01 0 0 1-5.963 2.666 8.029 8.029 0 0 1-6.92-4.001l-.29-.499H96.038l-.289.499a8.028 8.028 0 0 1-6.921 4.001 8.013 8.013 0 0 1-5.962-2.665c-1.537-1.717-2.243-3.937-1.987-6.252.412-3.717 3.415-6.679 7.143-7.043" fill="#ffe500"/><path d="M82.866 244.555a8.014 8.014 0 0 0 5.962 2.666 8.031 8.031 0 0 0 6.921-4.001l.288-.499h17.527l.289.498a8.03 8.03 0 0 0 6.921 4.002 8.014 8.014 0 0 0 5.963-2.666c1.537-1.717 2.242-3.938 1.986-6.251-.411-3.718-3.415-6.68-7.143-7.044a8.004 8.004 0 0 0-7.727 3.962l-.289.499H96.038l-.289-.499a8.003 8.003 0 0 0-7.727-3.962c-3.728.364-6.732 3.326-7.143 7.044-.256 2.314.449 4.534 1.987 6.251m4.961-15.285a10.001 10.001 0 0 1 9.344 4.451h15.26a10.005 10.005 0 0 1 9.344-4.451c4.663.454 8.421 4.161 8.936 8.814a10.047 10.047 0 0 1-2.484 7.804 10.015 10.015 0 0 1-7.453 3.333c-3.354 0-6.499-1.71-8.343-4.5h-15.26a10.037 10.037 0 0 1-8.343 4.5c-2.84 0-5.556-1.215-7.452-3.332a10.05 10.05 0 0 1-2.485-7.805c.515-4.653 4.273-8.36 8.936-8.814" fill="#ff9500"/><path d="M1066.063 231.26a8.002 8.002 0 0 0-7.727 3.962l-.289.498H950.521l-.29-.498a8.003 8.003 0 0 0-7.727-3.962c-3.727.364-6.731 3.326-7.142 7.043-.257 2.314.449 4.535 1.986 6.251a8.01 8.01 0 0 0 5.963 2.666 8.029 8.029 0 0 0 6.92-4.001l.29-.499h107.526l.289.499a8.028 8.028 0 0 0 6.921 4.001 8.013 8.013 0 0 0 5.962-2.665c1.537-1.717 2.243-3.937 1.987-6.252-.412-3.717-3.415-6.679-7.143-7.043" fill="#ffe500"/><path d="M1071.219 244.555a8.014 8.014 0 0 1-5.962 2.666 8.031 8.031 0 0 1-6.921-4.001l-.288-.499H950.521l-.289.498a8.03 8.03 0 0 1-6.921 4.002 8.014 8.014 0 0 1-5.963-2.666c-1.537-1.717-2.242-3.938-1.986-6.251.411-3.718 3.415-6.68 7.143-7.044a8.004 8.004 0 0 1 7.727 3.962l.289.499h107.526l.289-.499a8.003 8.003 0 0 1 7.727-3.962c3.728.364 6.732 3.326 7.143 7.044.256 2.314-.449 4.534-1.987 6.251m-4.961-15.285a10.001 10.001 0 0 0-9.344 4.451h-105.26a10.005 10.005 0 0 0-9.344-4.451c-4.663.454-8.421 4.161-8.936 8.814a10.047 10.047 0 0 0 2.484 7.804 10.015 10.015 0 0 0 7.453 3.333c3.354 0 6.499-1.71 8.343-4.5h105.26a10.037 10.037 0 0 0 8.343 4.5c2.84 0 5.556-1.215 7.452-3.332a10.05 10.05 0 0 0 2.485-7.805c-.515-4.653-4.273-8.36-8.936-8.814" fill="#ff9500"/><path d="M817 197.223a8.029 8.029 0 0 1 6.921 4.001l.289.499h58.811l18-18h416.767l.289-.499a8.026 8.026 0 0 1 6.921-4.001c4.411 0 8 3.589 8 8s-3.589 8-8 8a8.026 8.026 0 0 1-6.921-4.001l-.289-.499H903.92l-18 18h-61.71l-.289.499a8.029 8.029 0 0 1-6.921 4.001c-4.411 0-8-3.589-8-8s3.589-8 8-8" fill="#ffe500"/><path d="M833.999 222.226a8.029 8.029 0 0 1 6.921 4.001l.288.499h49.812l18-18h389.267l.289-.499a8.026 8.026 0 0 1 6.921-4.001c4.411 0 8 3.589 8 8s-3.589 8-8 8a8.026 8.026 0 0 1-6.921-4.001l-.289-.499H911.919l-18 18h-52.711l-.288.499a8.029 8.029 0 0 1-6.921 4.001c-4.411 0-8-3.589-8-8s3.589-8 8-8m266.703 9.034a8.002 8.002 0 0 1 7.727 3.962l.289.498h17.526l.29-.498a8.003 8.003 0 0 1 7.727-3.962c3.727.364 6.731 3.326 7.142 7.043.257 2.314-.449 4.535-1.986 6.251a8.01 8.01 0 0 1-5.963 2.666 8.029 8.029 0 0 1-6.92-4.001l-.29-.499h-17.526l-.289.499a8.028 8.028 0 0 1-6.921 4.001 8.013 8.013 0 0 1-5.962-2.665c-1.537-1.717-2.243-3.937-1.987-6.252.412-3.717 3.415-6.679 7.143-7.043" fill="#ffe500"/><path d="M817 213.223a8.029 8.029 0 0 0 6.921-4.001l.289-.499h61.71l18-18h413.868l.289.499a8.026 8.026 0 0 0 6.921 4.001c4.411 0 8-3.589 8-8s-3.589-8-8-8a8.026 8.026 0 0 0-6.921 4.001l-.289.499H901.021l-18 18H824.21l-.289-.499a8.029 8.029 0 0 0-6.921-4.001c-4.411 0-8 3.589-8 8s3.589 8 8 8m0-18c3.354 0 6.499 1.71 8.343 4.5h56.849l18-18h416.463a10.034 10.034 0 0 1 8.343-4.5c5.514 0 10 4.486 10 10s-4.486 10-10 10c-3.355 0-6.5-1.71-8.343-4.5H904.748l-18 18h-61.405a10.036 10.036 0 0 1-8.343 4.5c-5.514 0-10-4.486-10-10s4.486-10 10-10" fill="#ff9500"/><path d="M833.999 238.226a8.029 8.029 0 0 0 6.921-4.001l.288-.499h52.711l18-18h386.368l.289.499a8.026 8.026 0 0 0 6.921 4.001c4.411 0 8-3.589 8-8s-3.589-8-8-8a8.026 8.026 0 0 0-6.921 4.001l-.289.499H909.02l-18 18h-49.812l-.288-.499a8.029 8.029 0 0 0-6.921-4.001c-4.411 0-8 3.589-8 8s3.589 8 8 8m0-18c3.355 0 6.5 1.71 8.343 4.5h47.849l18-18h388.963a10.034 10.034 0 0 1 8.343-4.5c5.514 0 10 4.486 10 10s-4.486 10-10 10c-3.355 0-6.5-1.71-8.343-4.5H912.747l-18 18h-52.405a10.034 10.034 0 0 1-8.343 4.5c-5.514 0-10-4.486-10-10s4.486-10 10-10" fill="#ff9500"/><path d="M1095.546 244.555a8.014 8.014 0 0 0 5.962 2.666 8.031 8.031 0 0 0 6.921-4.001l.288-.499h17.527l.289.498a8.03 8.03 0 0 0 6.921 4.002 8.014 8.014 0 0 0 5.963-2.666c1.537-1.717 2.242-3.938 1.986-6.251-.411-3.718-3.415-6.68-7.143-7.044a8.004 8.004 0 0 0-7.727 3.962l-.289.499h-17.526l-.289-.499a8.003 8.003 0 0 0-7.727-3.962c-3.728.364-6.732 3.326-7.143 7.044-.256 2.314.449 4.534 1.987 6.251m4.961-15.285a10.001 10.001 0 0 1 9.344 4.451h15.26a10.005 10.005 0 0 1 9.344-4.451c4.663.454 8.421 4.161 8.936 8.814a10.047 10.047 0 0 1-2.484 7.804 10.015 10.015 0 0 1-7.453 3.333c-3.354 0-6.499-1.71-8.343-4.5h-15.26a10.037 10.037 0 0 1-8.343 4.5c-2.84 0-5.556-1.215-7.452-3.332a10.05 10.05 0 0 1-2.485-7.805c.515-4.653 4.273-8.36 8.936-8.814" fill="#ff9500"/><path d="M366.354 231.26a8.002 8.002 0 0 1 7.727 3.962l.289.498h17.526l.29-.498a8.003 8.003 0 0 1 7.727-3.962c3.727.364 6.731 3.326 7.142 7.043.257 2.314-.449 4.535-1.986 6.251a8.01 8.01 0 0 1-5.963 2.666 8.029 8.029 0 0 1-6.92-4.001l-.29-.499H374.37l-.289.499a8.028 8.028 0 0 1-6.921 4.001 8.013 8.013 0 0 1-5.962-2.665c-1.537-1.717-2.243-3.937-1.987-6.252.412-3.717 3.415-6.679 7.143-7.043" fill="#ffe500"/><path d="M361.198 244.555a8.014 8.014 0 0 0 5.962 2.666 8.031 8.031 0 0 0 6.921-4.001l.288-.499h17.527l.289.498a8.03 8.03 0 0 0 6.921 4.002 8.014 8.014 0 0 0 5.963-2.666c1.537-1.717 2.242-3.938 1.986-6.251-.411-3.718-3.415-6.68-7.143-7.044a8.004 8.004 0 0 0-7.727 3.962l-.289.499H374.37l-.289-.499a8.003 8.003 0 0 0-7.727-3.962c-3.728.364-6.732 3.326-7.143 7.044-.256 2.314.449 4.534 1.987 6.251m4.961-15.285a10.001 10.001 0 0 1 9.344 4.451h15.26a10.005 10.005 0 0 1 9.344-4.451c4.663.454 8.421 4.161 8.936 8.814a10.047 10.047 0 0 1-2.484 7.804 10.015 10.015 0 0 1-7.453 3.333c-3.354 0-6.499-1.71-8.343-4.5h-15.26a10.037 10.037 0 0 1-8.343 4.5c-2.84 0-5.556-1.215-7.452-3.332a10.05 10.05 0 0 1-2.485-7.805c.515-4.653 4.273-8.36 8.936-8.814" fill="#ff9500"/><path d="M1230.702 231.26a8.002 8.002 0 0 1 7.727 3.962l.289.498h17.526l.29-.498a8.003 8.003 0 0 1 7.727-3.962c3.727.364 6.731 3.326 7.142 7.043.257 2.314-.449 4.535-1.986 6.251a8.01 8.01 0 0 1-5.963 2.666 8.029 8.029 0 0 1-6.92-4.001l-.29-.499h-17.526l-.289.499a8.028 8.028 0 0 1-6.921 4.001 8.013 8.013 0 0 1-5.962-2.665c-1.537-1.717-2.243-3.937-1.987-6.252.412-3.717 3.415-6.679 7.143-7.043" fill="#ffe500"/><path d="M1225.546 244.555a8.014 8.014 0 0 0 5.962 2.666 8.031 8.031 0 0 0 6.921-4.001l.288-.499h17.527l.289.498a8.03 8.03 0 0 0 6.921 4.002 8.014 8.014 0 0 0 5.963-2.666c1.537-1.717 2.242-3.938 1.986-6.251-.411-3.718-3.415-6.68-7.143-7.044a8.004 8.004 0 0 0-7.727 3.962l-.289.499h-17.526l-.289-.499a8.003 8.003 0 0 0-7.727-3.962c-3.728.364-6.732 3.326-7.143 7.044-.256 2.314.449 4.534 1.987 6.251m4.961-15.285a10.001 10.001 0 0 1 9.344 4.451h15.26a10.005 10.005 0 0 1 9.344-4.451c4.663.454 8.421 4.161 8.936 8.814a10.047 10.047 0 0 1-2.484 7.804 10.015 10.015 0 0 1-7.453 3.333c-3.354 0-6.499-1.71-8.343-4.5h-15.26a10.037 10.037 0 0 1-8.343 4.5c-2.84 0-5.556-1.215-7.452-3.332a10.05 10.05 0 0 1-2.485-7.805c.515-4.653 4.273-8.36 8.936-8.814" fill="#ff9500"/></g></svg>